<svg width="29" height="29" viewBox="0 0 29 29" fill="none" xmlns="http://www.w3.org/2000/svg">
<path d="M23.1226 22.6789C23.8873 22.6789 24.6206 22.9761 25.1613 23.505C25.702 24.034 26.0058 24.7515 26.0058 25.4996C26.0058 26.2477 25.702 26.9651 25.1613 27.4941C24.6206 28.0231 23.8873 28.3203 23.1226 28.3203C21.5225 28.3203 20.2395 27.051 20.2395 25.4996C20.2395 23.9341 21.5225 22.6789 23.1226 22.6789ZM0.0574722 1.11328C0.0574722 0.560996 0.505187 0.113281 1.05747 0.113281H4.14241C4.52688 0.113281 4.8773 0.3337 5.04379 0.680254L5.85411 2.36701C6.0206 2.71356 6.37102 2.93398 6.75549 2.93398H27.4473C27.8297 2.93398 28.1963 3.08257 28.4667 3.34706C28.737 3.61156 28.8889 3.97028 28.8889 4.34433C28.8889 4.58409 28.8168 4.82385 28.7159 5.04951L23.5551 14.1745C23.0649 15.0348 22.1135 15.6271 21.0323 15.6271H10.8765C10.5158 15.6271 10.183 15.8215 10.0056 16.1356L9.03928 17.8479C9.01003 17.8997 8.98775 17.9552 8.97302 18.0129V18.0129C8.95904 18.0676 8.94862 18.1247 8.96239 18.1794C8.97797 18.2414 9.01061 18.2987 9.05752 18.3446C9.12511 18.4107 9.21678 18.4478 9.31236 18.4478H25.0058C25.558 18.4478 26.0058 18.8955 26.0058 19.4478V20.2685C26.0058 20.8208 25.558 21.2685 25.0058 21.2685H8.7069C7.10675 21.2685 5.82376 19.9992 5.82376 18.4478C5.82376 17.9542 5.9535 17.4888 6.16973 17.0939L7.87099 14.0955C8.03332 13.8094 8.04457 13.4618 7.90107 13.1658L3.21393 3.49774C3.04677 3.15294 2.69728 2.93398 2.3141 2.93398H1.05747C0.505188 2.93398 0.0574722 2.48627 0.0574722 1.93398V1.11328ZM8.7069 22.6789C9.47156 22.6789 10.2049 22.9761 10.7456 23.505C11.2863 24.034 11.59 24.7515 11.59 25.4996C11.59 26.2477 11.2863 26.9651 10.7456 27.4941C10.2049 28.0231 9.47156 28.3203 8.7069 28.3203C7.10675 28.3203 5.82376 27.051 5.82376 25.4996C5.82376 23.9341 7.10675 22.6789 8.7069 22.6789ZM21.0323 5.75468H25.6886H7.46715H18.8314H21.0323Z" fill="black"/>
</svg>
