<svg width="136" height="51" viewBox="0 0 136 51" fill="none" xmlns="http://www.w3.org/2000/svg">
<g filter="url(#filter0_d_139_2)">
<rect x="7" y="7" width="122" height="37" rx="8" fill="#727272"/>
</g>
<path d="M38.524 32.216C37.24 32.216 36.076 31.94 35.032 31.388C34 30.824 33.184 30.05 32.584 29.066C31.996 28.07 31.702 26.948 31.702 25.7C31.702 24.452 31.996 23.336 32.584 22.352C33.184 21.356 34 20.582 35.032 20.03C36.076 19.466 37.246 19.184 38.542 19.184C39.634 19.184 40.618 19.376 41.494 19.76C42.382 20.144 43.126 20.696 43.726 21.416L41.854 23.144C41.002 22.16 39.946 21.668 38.686 21.668C37.906 21.668 37.21 21.842 36.598 22.19C35.986 22.526 35.506 23 35.158 23.612C34.822 24.224 34.654 24.92 34.654 25.7C34.654 26.48 34.822 27.176 35.158 27.788C35.506 28.4 35.986 28.88 36.598 29.228C37.21 29.564 37.906 29.732 38.686 29.732C39.946 29.732 41.002 29.234 41.854 28.238L43.726 29.966C43.126 30.698 42.382 31.256 41.494 31.64C40.606 32.024 39.616 32.216 38.524 32.216ZM49.3329 22.172C50.8329 22.172 51.9849 22.532 52.7889 23.252C53.5929 23.96 53.9949 25.034 53.9949 26.474V32H51.3669V30.794C50.8389 31.694 49.8549 32.144 48.4149 32.144C47.6709 32.144 47.0229 32.018 46.4709 31.766C45.9309 31.514 45.5169 31.166 45.2289 30.722C44.9409 30.278 44.7969 29.774 44.7969 29.21C44.7969 28.31 45.1329 27.602 45.8049 27.086C46.4889 26.57 47.5389 26.312 48.9549 26.312H51.1869C51.1869 25.7 51.0009 25.232 50.6289 24.908C50.2569 24.572 49.6989 24.404 48.9549 24.404C48.4389 24.404 47.9289 24.488 47.4249 24.656C46.9329 24.812 46.5129 25.028 46.1649 25.304L45.1569 23.342C45.6849 22.97 46.3149 22.682 47.0469 22.478C47.7909 22.274 48.5529 22.172 49.3329 22.172ZM49.1169 30.254C49.5969 30.254 50.0229 30.146 50.3949 29.93C50.7669 29.702 51.0309 29.372 51.1869 28.94V27.95H49.2609C48.1089 27.95 47.5329 28.328 47.5329 29.084C47.5329 29.444 47.6709 29.732 47.9469 29.948C48.2349 30.152 48.6249 30.254 49.1169 30.254ZM62.7822 31.532C62.5062 31.736 62.1642 31.892 61.7562 32C61.3602 32.096 60.9402 32.144 60.4962 32.144C59.3442 32.144 58.4502 31.85 57.8142 31.262C57.1902 30.674 56.8782 29.81 56.8782 28.67V24.692H55.3842V22.532H56.8782V20.174H59.6862V22.532H62.0982V24.692H59.6862V28.634C59.6862 29.042 59.7882 29.36 59.9922 29.588C60.2082 29.804 60.5082 29.912 60.8922 29.912C61.3362 29.912 61.7142 29.792 62.0262 29.552L62.7822 31.532ZM68.2645 22.172C69.7645 22.172 70.9165 22.532 71.7205 23.252C72.5245 23.96 72.9265 25.034 72.9265 26.474V32H70.2985V30.794C69.7705 31.694 68.7865 32.144 67.3465 32.144C66.6025 32.144 65.9545 32.018 65.4025 31.766C64.8625 31.514 64.4485 31.166 64.1605 30.722C63.8725 30.278 63.7285 29.774 63.7285 29.21C63.7285 28.31 64.0645 27.602 64.7365 27.086C65.4205 26.57 66.4705 26.312 67.8865 26.312H70.1185C70.1185 25.7 69.9325 25.232 69.5605 24.908C69.1885 24.572 68.6305 24.404 67.8865 24.404C67.3705 24.404 66.8605 24.488 66.3565 24.656C65.8645 24.812 65.4445 25.028 65.0965 25.304L64.0885 23.342C64.6165 22.97 65.2465 22.682 65.9785 22.478C66.7225 22.274 67.4845 22.172 68.2645 22.172ZM68.0485 30.254C68.5285 30.254 68.9545 30.146 69.3265 29.93C69.6985 29.702 69.9625 29.372 70.1185 28.94V27.95H68.1925C67.0405 27.95 66.4645 28.328 66.4645 29.084C66.4645 29.444 66.6025 29.732 66.8785 29.948C67.1665 30.152 67.5565 30.254 68.0485 30.254ZM75.4679 18.644H78.2759V32H75.4679V18.644ZM85.4899 32.144C84.4699 32.144 83.5519 31.934 82.7359 31.514C81.9319 31.082 81.3019 30.488 80.8459 29.732C80.3899 28.976 80.1619 28.118 80.1619 27.158C80.1619 26.198 80.3899 25.34 80.8459 24.584C81.3019 23.828 81.9319 23.24 82.7359 22.82C83.5519 22.388 84.4699 22.172 85.4899 22.172C86.5099 22.172 87.4219 22.388 88.2259 22.82C89.0299 23.24 89.6599 23.828 90.1159 24.584C90.5719 25.34 90.7999 26.198 90.7999 27.158C90.7999 28.118 90.5719 28.976 90.1159 29.732C89.6599 30.488 89.0299 31.082 88.2259 31.514C87.4219 31.934 86.5099 32.144 85.4899 32.144ZM85.4899 29.84C86.2099 29.84 86.7979 29.6 87.2539 29.12C87.7219 28.628 87.9559 27.974 87.9559 27.158C87.9559 26.342 87.7219 25.694 87.2539 25.214C86.7979 24.722 86.2099 24.476 85.4899 24.476C84.7699 24.476 84.1759 24.722 83.7079 25.214C83.2399 25.694 83.0059 26.342 83.0059 27.158C83.0059 27.974 83.2399 28.628 83.7079 29.12C84.1759 29.6 84.7699 29.84 85.4899 29.84ZM102.667 22.316V30.38C102.667 32.156 102.205 33.476 101.281 34.34C100.357 35.204 99.0069 35.636 97.2309 35.636C96.2949 35.636 95.4069 35.522 94.5669 35.294C93.7269 35.066 93.0309 34.736 92.4789 34.304L93.5949 32.288C94.0029 32.624 94.5189 32.888 95.1429 33.08C95.7669 33.284 96.3909 33.386 97.0149 33.386C97.9869 33.386 98.7009 33.164 99.1569 32.72C99.6249 32.288 99.8589 31.628 99.8589 30.74V30.326C99.1269 31.13 98.1069 31.532 96.7989 31.532C95.9109 31.532 95.0949 31.34 94.3509 30.956C93.6189 30.56 93.0369 30.008 92.6049 29.3C92.1729 28.592 91.9569 27.776 91.9569 26.852C91.9569 25.928 92.1729 25.112 92.6049 24.404C93.0369 23.696 93.6189 23.15 94.3509 22.766C95.0949 22.37 95.9109 22.172 96.7989 22.172C98.2029 22.172 99.2709 22.634 100.003 23.558V22.316H102.667ZM97.3569 29.228C98.1009 29.228 98.7069 29.012 99.1749 28.58C99.6549 28.136 99.8949 27.56 99.8949 26.852C99.8949 26.144 99.6549 25.574 99.1749 25.142C98.7069 24.698 98.1009 24.476 97.3569 24.476C96.6129 24.476 96.0009 24.698 95.5209 25.142C95.0409 25.574 94.8009 26.144 94.8009 26.852C94.8009 27.56 95.0409 28.136 95.5209 28.58C96.0009 29.012 96.6129 29.228 97.3569 29.228Z" fill="white"/>
<defs>
<filter id="filter0_d_139_2" x="0" y="0" width="136" height="51" filterUnits="userSpaceOnUse" color-interpolation-filters="sRGB">
<feFlood flood-opacity="0" result="BackgroundImageFix"/>
<feColorMatrix in="SourceAlpha" type="matrix" values="0 0 0 0 0 0 0 0 0 0 0 0 0 0 0 0 0 0 127 0" result="hardAlpha"/>
<feOffset/>
<feGaussianBlur stdDeviation="3.5"/>
<feComposite in2="hardAlpha" operator="out"/>
<feColorMatrix type="matrix" values="0 0 0 0 0 0 0 0 0 0 0 0 0 0 0 0 0 0 0.25 0"/>
<feBlend mode="normal" in2="BackgroundImageFix" result="effect1_dropShadow_139_2"/>
<feBlend mode="normal" in="SourceGraphic" in2="effect1_dropShadow_139_2" result="shape"/>
</filter>
</defs>
</svg>
