<svg width="25" height="25" viewBox="0 0 25 25" fill="none" xmlns="http://www.w3.org/2000/svg">
<path d="M20 20C20.663 20 21.2989 20.2634 21.7678 20.7322C22.2366 21.2011 22.5 21.837 22.5 22.5C22.5 23.163 22.2366 23.7989 21.7678 24.2678C21.2989 24.7366 20.663 25 20 25C18.6125 25 17.5 23.875 17.5 22.5C17.5 21.1125 18.6125 20 20 20ZM0 1C0 0.447715 0.447715 0 1 0H3.45256C3.84009 0 4.19274 0.223909 4.35758 0.574639L4.99242 1.92536C5.15726 2.27609 5.50991 2.5 5.89744 2.5H23.75C24.0815 2.5 24.3995 2.6317 24.6339 2.86612C24.8683 3.10054 25 3.41848 25 3.75C25 3.9625 24.9375 4.175 24.85 4.375L20.375 12.4625C19.95 13.225 19.125 13.75 18.1875 13.75H9.46516C9.10106 13.75 8.76573 13.9479 8.58974 14.2666L7.78846 15.7179C7.76293 15.7641 7.74351 15.8134 7.7307 15.8647C7.71861 15.913 7.70961 15.9634 7.72147 16.0118C7.73495 16.0669 7.76329 16.1177 7.80403 16.1585C7.86263 16.2171 7.94212 16.25 8.025 16.25H21.5C22.0523 16.25 22.5 16.6977 22.5 17.25V17.75C22.5 18.3023 22.0523 18.75 21.5 18.75H7.5C6.1125 18.75 5 17.625 5 16.25C5 15.8125 5.1125 15.4 5.3 15.05L6.75051 12.4369C6.9071 12.1549 6.91797 11.8146 6.77971 11.5231L2.77104 3.07145C2.60551 2.72246 2.25379 2.5 1.86753 2.5H1C0.447715 2.5 0 2.05228 0 1.5V1ZM7.5 20C8.16304 20 8.79893 20.2634 9.26777 20.7322C9.73661 21.2011 10 21.837 10 22.5C10 23.163 9.73661 23.7989 9.26777 24.2678C8.79893 24.7366 8.16304 25 7.5 25C6.1125 25 5 23.875 5 22.5C5 21.1125 6.1125 20 7.5 20ZM18.1618 11.25C18.5249 11.25 18.8594 11.0532 19.0358 10.7359L21.3988 6.48594C21.7694 5.8194 21.2875 5 20.5248 5H8.0028C7.26928 5 6.78537 5.7635 7.09847 6.42684L9.10447 10.6768C9.26963 11.0268 9.62185 11.25 10.0088 11.25H18.1618Z" fill="white"/>
</svg>
