<svg width="70" height="50" viewBox="0 0 70 50" fill="none" xmlns="http://www.w3.org/2000/svg">
<path d="M6.27706 0C4.61228 0 3.01568 0.65848 1.83851 1.83058C0.661331 3.00268 0 4.5924 0 6.25V39.625C0 40.1773 0.447715 40.625 1 40.625H5.27706C5.82934 40.625 6.27151 41.074 6.33054 41.6232C6.55841 43.7426 7.50696 45.7329 9.03482 47.2541C10.8006 49.0123 13.1955 50 15.6926 50C18.1898 50 20.5847 49.0123 22.3505 47.2541C23.8783 45.7329 24.8269 43.7426 25.0547 41.6232C25.1138 41.074 25.5559 40.625 26.1082 40.625H42.9394C43.4917 40.625 43.9338 41.074 43.9929 41.6232C44.2207 43.7426 45.1693 45.7329 46.6972 47.2541C48.4629 49.0123 50.8578 50 53.355 50C55.8521 50 58.247 49.0123 60.0128 47.2541C61.5407 45.7329 62.4892 43.7426 62.7171 41.6232C62.7761 41.074 63.2183 40.625 63.7706 40.625H68.0476C68.5999 40.625 69.0476 40.1773 69.0476 39.625V25.3345C69.0476 25.1174 68.977 24.9062 68.8464 24.7328L59.9321 12.8983C59.7431 12.6475 59.4474 12.5 59.1333 12.5H51.2165C50.6642 12.5 50.2165 12.0523 50.2165 11.5V1C50.2165 0.447715 49.7687 0 49.2165 0H6.27706ZM28.2468 8.65686C28.2468 7.76699 29.3217 7.32036 29.9523 7.94823L40.0892 18.0414C40.4817 18.4322 40.4817 19.0678 40.0892 19.4586L29.9523 29.5518C29.3217 30.1796 28.2468 29.733 28.2468 28.8431V22.875C28.2468 22.3227 27.799 21.875 27.2468 21.875H10.4156C9.8633 21.875 9.41558 21.4273 9.41558 20.875V16.625C9.41558 16.0727 9.8633 15.625 10.4156 15.625H27.2468C27.799 15.625 28.2468 15.1773 28.2468 14.625V8.65686ZM50.2165 18.1875C50.2165 17.6352 50.6642 17.1875 51.2165 17.1875H57.5789C57.8845 17.1875 58.1734 17.3273 58.363 17.5669L62.9631 23.3794C63.482 24.035 63.015 25 62.179 25H51.2165C50.6642 25 50.2165 24.5523 50.2165 24V18.1875ZM15.6926 35.9375C16.9412 35.9375 18.1387 36.4314 19.0216 37.3104C19.9044 38.1895 20.4004 39.3818 20.4004 40.625C20.4004 41.8682 19.9044 43.0605 19.0216 43.9396C18.1387 44.8186 16.9412 45.3125 15.6926 45.3125C14.4441 45.3125 13.2466 44.8186 12.3637 43.9396C11.4808 43.0605 10.9848 41.8682 10.9848 40.625C10.9848 39.3818 11.4808 38.1895 12.3637 37.3104C13.2466 36.4314 14.4441 35.9375 15.6926 35.9375ZM53.355 35.9375C54.6036 35.9375 55.801 36.4314 56.6839 37.3104C57.5668 38.1895 58.0628 39.3818 58.0628 40.625C58.0628 41.8682 57.5668 43.0605 56.6839 43.9396C55.801 44.8186 54.6036 45.3125 53.355 45.3125C52.1064 45.3125 50.909 44.8186 50.0261 43.9396C49.1432 43.0605 48.6472 41.8682 48.6472 40.625C48.6472 39.3818 49.1432 38.1895 50.0261 37.3104C50.909 36.4314 52.1064 35.9375 53.355 35.9375Z" fill="#BBBBBB"/>
</svg>
