<svg width="35" height="35" viewBox="0 0 35 35" fill="none" xmlns="http://www.w3.org/2000/svg">
<path d="M4.94866 0.347074L0.346589 4.94914C-0.11553 5.41126 -0.115529 6.16051 0.346589 6.62262L28.3774 34.6534C28.8395 35.1155 29.5887 35.1155 30.0509 34.6534L34.6529 30.0513C35.115 29.5892 35.115 28.84 34.6529 28.3779L6.62214 0.347074C6.16002 -0.115045 5.41078 -0.115045 4.94866 0.347074Z" fill="#C03939"/>
<path d="M34.6529 4.94866L30.0509 0.346589C29.5887 -0.11553 28.8395 -0.115529 28.3774 0.346589L0.346594 28.3774C-0.115524 28.8395 -0.115525 29.5887 0.346594 30.0509L4.94866 34.6529C5.41078 35.115 6.16003 35.115 6.62214 34.6529L34.6529 6.62214C35.1151 6.16002 35.1151 5.41078 34.6529 4.94866Z" fill="#C03939"/>
</svg>
