<svg width="25" height="25" viewBox="0 0 25 25" fill="none" xmlns="http://www.w3.org/2000/svg">
<path d="M12.5 14.2375C14.5641 14.2375 17.6669 14.7568 20.2494 15.7914C21.5405 16.3086 22.6904 16.9502 23.5149 17.7111C24.3381 18.4709 24.825 19.3377 24.825 20.3125V24C24.825 24.4556 24.4556 24.825 24 24.825H1C0.544366 24.825 0.175 24.4556 0.175 24V20.3125C0.175 19.3377 0.661921 18.4709 1.48514 17.7111C2.30956 16.9502 3.45955 16.3086 4.75062 15.7914C7.33306 14.7568 10.4359 14.2375 12.5 14.2375ZM12.5 0.175C14.1112 0.175 15.6564 0.815042 16.7957 1.95433C17.935 3.09361 18.575 4.63881 18.575 6.25C18.575 7.86119 17.935 9.40639 16.7957 10.5457C15.6564 11.685 14.1112 12.325 12.5 12.325C10.8888 12.325 9.34361 11.685 8.20433 10.5457C7.06504 9.40639 6.425 7.86119 6.425 6.25C6.425 4.63881 7.06504 3.09361 8.20433 1.95433C9.34361 0.815042 10.8888 0.175 12.5 0.175ZM12.5 16.8563C10.1537 16.8563 7.74942 17.4323 5.93117 18.1336C5.02209 18.4842 4.25322 18.8686 3.70826 19.2324C3.43628 19.4139 3.21421 19.5943 3.05809 19.7671C2.90704 19.9343 2.79375 20.1208 2.79375 20.3125V21.0312C2.79375 21.6802 3.31982 22.2062 3.96875 22.2062H21.0312C21.6802 22.2062 22.2062 21.6802 22.2062 21.0312V20.3125C22.2062 20.1208 22.093 19.9343 21.9419 19.7671C21.7858 19.5943 21.5637 19.4139 21.2917 19.2324C20.7468 18.8686 19.9779 18.4842 19.0688 18.1336C17.2506 17.4323 14.8463 16.8563 12.5 16.8563ZM12.5 2.79375C11.5833 2.79375 10.7042 3.15789 10.0561 3.80606C9.40789 4.45423 9.04375 5.33335 9.04375 6.25C9.04375 7.16665 9.40789 8.04576 10.0561 8.69394C10.7042 9.34211 11.5833 9.70625 12.5 9.70625C13.4167 9.70625 14.2958 9.34211 14.9439 8.69394C15.5921 8.04576 15.9563 7.16665 15.9563 6.25C15.9563 5.33335 15.5921 4.45423 14.9439 3.80606C14.2958 3.15789 13.4167 2.79375 12.5 2.79375Z" fill="white" stroke="#2D2D2D" stroke-width="0.35"/>
</svg>
