<svg width="50" height="50" viewBox="0 0 50 50" fill="none" xmlns="http://www.w3.org/2000/svg">
<path d="M44.4444 39.4444C44.4444 42.2059 42.2059 44.4444 39.4444 44.4444H10.5556C7.79413 44.4444 5.55556 42.2059 5.55556 39.4444V10.5556C5.55556 7.79413 7.79413 5.55556 10.5556 5.55556H39.4444C42.2059 5.55556 44.4444 7.79413 44.4444 10.5556V39.4444ZM44.4444 0H5.55556C4.08213 0 2.66905 0.585316 1.62718 1.62718C0.585316 2.66905 0 4.08213 0 5.55556V44.4444C0 45.9179 0.585316 47.3309 1.62718 48.3728C2.66905 49.4147 4.08213 50 5.55556 50H44.4444C45.9179 50 47.3309 49.4147 48.3728 48.3728C49.4147 47.3309 50 45.9179 50 44.4444V5.55556C50 2.47222 47.5 0 44.4444 0ZM37.5 36.8056C37.5 32.6389 29.1667 30.5556 25 30.5556C20.8333 30.5556 12.5 32.6389 12.5 36.8056C12.5 37.9561 13.4327 38.8889 14.5833 38.8889H35.4167C36.5673 38.8889 37.5 37.9561 37.5 36.8056ZM25 25.6944C26.6576 25.6944 28.2473 25.036 29.4194 23.8639C30.5915 22.6918 31.25 21.102 31.25 19.4444C31.25 17.7868 30.5915 16.1971 29.4194 15.025C28.2473 13.8529 26.6576 13.1944 25 13.1944C23.3424 13.1944 21.7527 13.8529 20.5806 15.025C19.4085 16.1971 18.75 17.7868 18.75 19.4444C18.75 21.102 19.4085 22.6918 20.5806 23.8639C21.7527 25.036 23.3424 25.6944 25 25.6944Z" fill="#2D2D2D"/>
</svg>
