<svg width="51" height="51" viewBox="0 0 51 51" fill="none" xmlns="http://www.w3.org/2000/svg">
<path d="M5.5 0.5H45.5C46.8261 0.5 48.0979 1.02678 49.0355 1.96447C49.9732 2.90215 50.5 4.17392 50.5 5.5V35.5C50.5 36.8261 49.9732 38.0979 49.0355 39.0355C48.0979 39.9732 46.8261 40.5 45.5 40.5H30.4231C30.1526 40.5 29.8937 40.6095 29.7054 40.8036L21 49.775C20.5 50.25 19.875 50.5 19.25 50.5H18C17.337 50.5 16.7011 50.2366 16.2322 49.7678C15.7634 49.2989 15.5 48.663 15.5 48V41.5C15.5 40.9477 15.0523 40.5 14.5 40.5H5.5C4.17392 40.5 2.90215 39.9732 1.96447 39.0355C1.02678 38.0979 0.5 36.8261 0.5 35.5V5.5C0.5 2.725 2.75 0.5 5.5 0.5ZM25.975 9.25C23.75 9.25 21.975 9.7 20.625 10.6C19.5035 11.3341 18.8311 12.4672 18.6891 13.7961C18.6333 14.3174 19.0809 14.725 19.6052 14.725H22.6C23.1523 14.725 23.5659 14.2538 23.7988 13.753C23.9099 13.514 24.0637 13.313 24.25 13.15C24.75 12.8 25.3 12.625 25.975 12.625C26.75 12.625 27.425 12.825 27.875 13.275C28.325 13.7 28.55 14.25 28.55 15C28.55 15.7 28.35 16.325 28 16.85C27.575 17.4 27.05 17.85 26.4 18.2C24.4153 19.2687 24.1104 19.6621 23.725 20.3C23.1786 21.2043 22.973 22.421 22.9049 23.5007C22.8701 24.0519 23.3227 24.5 23.875 24.5H26.875C27.4273 24.5 27.8859 24.0522 27.9435 23.503C28.0333 22.6462 28.1974 21.6052 28.35 21.3C28.575 20.875 29 20.5 29.65 20.125C30.8 19.6 31.75 18.9 32.475 18C33.2 17.075 33.575 16.1 33.575 15C33.575 13.25 32.9 11.85 31.55 10.8C30.2 9.775 28.325 9.25 25.975 9.25ZM23.875 27C23.3227 27 22.875 27.4477 22.875 28V31C22.875 31.5523 23.3227 32 23.875 32H26.875C27.4273 32 27.875 31.5523 27.875 31V28C27.875 27.4477 27.4273 27 26.875 27H23.875Z" fill="#BBBBBB"/>
</svg>
