<svg width="22" height="26" viewBox="0 0 22 26" fill="none" xmlns="http://www.w3.org/2000/svg">
<path d="M8.7535 24.4973C8.53724 23.9891 9.00327 23.5238 9.55556 23.5238H12.4444C12.9967 23.5238 13.4628 23.9891 13.2465 24.4973C12.8713 25.3789 12.0038 26 11 26C9.99621 26 9.12869 25.3789 8.7535 24.4973ZM21.7469 20.7912C21.9091 20.9555 22 21.1771 22 21.4079C22 21.8927 21.607 22.2857 21.1222 22.2857H0.877808C0.393008 22.2857 0 21.8927 0 21.4079C0 21.1771 0.0909352 20.9555 0.253112 20.7912L2.1561 18.8635C2.34085 18.6764 2.44444 18.424 2.44444 18.161V11.1429C2.44444 7.33397 4.85183 4.01281 8.47206 2.87344C8.52736 2.85604 8.58224 2.8351 8.6322 2.8057C9.77322 2.13421 9.68433 0 11 0C12.3157 0 12.2268 2.13421 13.3678 2.8057C13.4178 2.8351 13.4726 2.85604 13.5279 2.87344C17.1482 4.01281 19.5556 7.33397 19.5556 11.1429V18.161C19.5556 18.424 19.6591 18.6764 19.8439 18.8635L21.7469 20.7912ZM17.1111 11.1429C17.1111 7.67619 14.4222 4.95238 11 4.95238C7.57778 4.95238 4.88889 7.67619 4.88889 11.1429V18.8095C4.88889 19.3618 5.3366 19.8095 5.88889 19.8095H16.1111C16.6634 19.8095 17.1111 19.3618 17.1111 18.8095V11.1429Z" fill="white"/>
</svg>
