<svg width="50" height="50" viewBox="0 0 50 50" fill="none" xmlns="http://www.w3.org/2000/svg">
<path d="M41.25 0H8.75C4 0 0 4 0 8.75V41.25C0 46 4 50 8.75 50H34.5858C34.851 50 35.1054 49.8946 35.2929 49.7071L49.7071 35.2929C49.8946 35.1054 50 34.851 50 34.5858V8.75C50 4 46 0 41.25 0ZM13.1814 26.9314C12.8011 26.5511 12.7897 25.938 13.1557 25.5438L15.0439 23.5104C15.4296 23.0951 16.083 23.083 16.4838 23.4838L20.2929 27.2929C20.6834 27.6834 21.3166 27.6834 21.7071 27.2929L33.2929 15.7071C33.6834 15.3166 34.3166 15.3166 34.7071 15.7071L36.7983 17.7983C37.1867 18.1867 37.1891 18.8157 36.8036 19.2071L21.9571 34.2821C21.5674 34.6777 20.9301 34.6801 20.5375 34.2875L13.1814 26.9314ZM34.2071 43.2929C33.5771 43.9229 32.5 43.4767 32.5 42.5858V41.25C32.5 36.5 36.5 32.5 41.25 32.5H42.5858C43.4767 32.5 43.9229 33.5771 43.2929 34.2071L34.2071 43.2929Z" fill="#BBBBBB"/>
</svg>
